<?xml version="1.0" encoding="utf-8"?>
<!-- Generator: Adobe Illustrator 22.1.0, SVG Export Plug-In . SVG Version: 6.00 Build 0)  -->
<svg version="1.1" id="Layer_1" xmlns="http://www.w3.org/2000/svg" xmlns:xlink="http://www.w3.org/1999/xlink" x="0px" y="0px"
	 viewBox="0 0 1024 1024" style="enable-background:new 0 0 1024 1024;" xml:space="preserve">
<style type="text/css">
	.st0{fill:#96588A;}
	.st1{fill:none;stroke:#ED1C24;stroke-miterlimit:10;}
	.st2{fill:#FFFFFF;stroke:#231F20;stroke-width:2;stroke-miterlimit:10;}
	.st3{font-family:'Raleway';}
	.st4{font-size:57px;}
	.st5{fill:#ED1C24;}
	.st6{font-size:49px;}
	.st7{font-family:'Raleway-Bold';}
	.st8{fill:#FAFEFD;}
	.st9{fill:#FFFFFF;}
</style>
<rect class="st0" width="1024" height="1024"/>
<rect x="68.1" y="68.1" class="st1" width="887.7" height="887.7"/>
<path class="st2" d="M890.8,578.2H133.3c-7.3,0-13.3-5.9-13.3-13.3v-71.5c0-7.3,5.9-13.3,13.3-13.3h757.5c7.3,0,13.3,5.9,13.3,13.3
	v71.5C904,572.2,898.1,578.2,890.8,578.2z"/>
<text transform="matrix(1 0 0 1 119.9998 459.4937)"><tspan x="0" y="0" class="st3 st4">Name</tspan><tspan x="161" y="0" class="st5 st3 st4">*</tspan></text>
<text transform="matrix(1 0 0 1 160.9699 544.6196)" class="st3 st6">Woocommerce Account Fields</text>
<g>
	<path class="st2" d="M890.8,874.5H133.3c-7.3,0-13.3-5.9-13.3-13.3v-71.5c0-7.3,5.9-13.3,13.3-13.3h757.5c7.3,0,13.3,5.9,13.3,13.3
		v71.5C904,868.6,898.1,874.5,890.8,874.5z"/>
	<text transform="matrix(1 0 0 1 119.9998 755.8269)"><tspan x="0" y="0" class="st3 st4">Password</tspan><tspan x="258" y="0" class="st5 st3 st4">*</tspan></text>
	<g>
		<path d="M163.1,832.7l4.1-6.2l-6.2-1.9l1.6-5.1l6.4,2.7l-0.4-6.8h6.2l-0.4,6.8l6.3-2.7l1.6,5.1l-6.2,1.9l4.1,6.2l-4.6,3l-4-6.6
			l-4,6.6L163.1,832.7z"/>
		<path d="M193.4,832.7l4.1-6.2l-6.2-1.9l1.6-5.1l6.4,2.7l-0.4-6.8h6.2l-0.4,6.8l6.3-2.7l1.6,5.1l-6.2,1.9l4.1,6.2l-4.6,3l-4-6.6
			l-4,6.6L193.4,832.7z"/>
		<path d="M223.8,832.7l4.1-6.2l-6.2-1.9l1.6-5.1l6.4,2.7l-0.4-6.8h6.2l-0.4,6.8l6.3-2.7l1.6,5.1l-6.2,1.9l4.1,6.2l-4.6,3l-4-6.6
			l-4,6.6L223.8,832.7z"/>
		<path d="M254.2,832.7l4.1-6.2l-6.2-1.9l1.6-5.1l6.4,2.7l-0.4-6.8h6.2l-0.4,6.8l6.3-2.7l1.6,5.1l-6.2,1.9l4.1,6.2l-4.6,3l-4-6.6
			l-4,6.6L254.2,832.7z"/>
		<path d="M284.5,832.7l4.1-6.2l-6.2-1.9l1.6-5.1l6.4,2.7l-0.4-6.8h6.2l-0.4,6.8l6.3-2.7l1.6,5.1l-6.2,1.9l4.1,6.2l-4.6,3l-4-6.6
			l-4,6.6L284.5,832.7z"/>
		<path d="M314.9,832.7l4.1-6.2l-6.2-1.9l1.6-5.1l6.4,2.7l-0.4-6.8h6.2l-0.4,6.8l6.3-2.7l1.6,5.1l-6.2,1.9l4.1,6.2l-4.6,3l-4-6.6
			l-4,6.6L314.9,832.7z"/>
		<path d="M345.2,832.7l4.1-6.2l-6.2-1.9l1.6-5.1l6.4,2.7l-0.4-6.8h6.2l-0.4,6.8l6.3-2.7l1.6,5.1l-6.2,1.9l4.1,6.2l-4.6,3l-4-6.6
			l-4,6.6L345.2,832.7z"/>
		<path d="M375.6,832.7l4.1-6.2l-6.2-1.9l1.6-5.1l6.4,2.7l-0.4-6.8h6.2l-0.4,6.8l6.3-2.7l1.6,5.1l-6.2,1.9l4.1,6.2l-4.6,3l-4-6.6
			l-4,6.6L375.6,832.7z"/>
		<path d="M406,832.7l4.1-6.2l-6.2-1.9l1.6-5.1l6.4,2.7l-0.4-6.8h6.2l-0.4,6.8l6.3-2.7l1.6,5.1l-6.2,1.9l4.1,6.2l-4.6,3l-4-6.6
			l-4,6.6L406,832.7z"/>
		<path d="M436.3,832.7l4.1-6.2l-6.2-1.9l1.6-5.1l6.4,2.7l-0.4-6.8h6.2l-0.4,6.8l6.3-2.7l1.6,5.1l-6.2,1.9l4.1,6.2l-4.6,3l-4-6.6
			l-4,6.6L436.3,832.7z"/>
		<path d="M466.7,832.7l4.1-6.2l-6.2-1.9l1.6-5.1l6.4,2.7l-0.4-6.8h6.2l-0.4,6.8l6.3-2.7l1.6,5.1l-6.2,1.9l4.1,6.2l-4.6,3l-4-6.6
			l-4,6.6L466.7,832.7z"/>
		<path d="M497,832.7l4.1-6.2l-6.2-1.9l1.6-5.1l6.4,2.7l-0.4-6.8h6.2l-0.4,6.8l6.3-2.7l1.6,5.1l-6.2,1.9l4.1,6.2l-4.6,3l-4-6.6
			l-4,6.6L497,832.7z"/>
		<path d="M527.4,832.7l4.1-6.2l-6.2-1.9l1.6-5.1l6.4,2.7l-0.4-6.8h6.2l-0.4,6.8l6.3-2.7l1.6,5.1l-6.2,1.9l4.1,6.2l-4.6,3l-4-6.6
			l-4,6.6L527.4,832.7z"/>
		<path d="M557.7,832.7l4.1-6.2l-6.2-1.9l1.6-5.1l6.4,2.7l-0.4-6.8h6.2l-0.4,6.8l6.3-2.7l1.6,5.1l-6.2,1.9l4.1,6.2l-4.6,3l-4-6.6
			l-4,6.6L557.7,832.7z"/>
	</g>
</g>
<g>
	<text transform="matrix(1 0 0 1 337.0968 331.1296)" class="st7 st6">Account Fields</text>
	<g>
		<polygon class="st8" points="865.5,151 783.4,151 783.4,272.5 809.4,272.5 809.4,229 863.6,229 863.6,202.5 808.7,202.5 
			808.7,176 865.5,176 		"/>
		<path class="st8" d="M778.1,197.9c-6.5-15.5-23-24.4-39.2-21.4c-17.2,3.2-29.1,18.9-28.7,35.7c0.3,15.5,11,29.9,26.5,33.7
			c16.6,4,34.4-5.1,41.2-21.8c6.4,6.5,12.7,12.9,19.1,19.4c-1.9,3-16.6,25.7-45,28.8c-20.7,2.3-36.1-7.3-40.4-10.3
			c-8.5-22.2-17.1-44.4-25.6-66.6c7.8-26.7,31.4-45.2,57.5-45.8c21.5-0.5,42,11.3,53.5,30.5C790.6,186,784.3,191.9,778.1,197.9z"/>
		<path class="st9" d="M160.6,159.3c1.8-2.4,4.4-3.7,7.9-3.9c6.4-0.5,10.1,2.5,11,9.1c3.9,26.4,8.2,48.7,12.7,67l27.6-52.6
			c2.5-4.8,5.7-7.3,9.5-7.6c5.6-0.4,9,3.2,10.3,10.6c3.2,16.8,7.2,31,12,43.2c3.3-32.1,8.8-55.1,16.7-69.4c1.9-3.5,4.7-5.3,8.3-5.6
			c2.9-0.3,5.6,0.6,7.9,2.5c2.4,1.9,3.7,4.3,3.9,7.2c0.1,2.3-0.3,4.2-1.3,6.1c-4.9,9.1-9,24.4-12.2,45.6
			c-3.2,20.6-4.3,36.6-3.5,48.1c0.3,3.2-0.3,5.9-1.5,8.3c-1.5,2.8-3.8,4.3-6.7,4.5c-3.3,0.3-6.7-1.3-10-4.7
			c-11.7-12-21.1-29.9-27.9-53.8c-8.2,16.2-14.3,28.3-18.2,36.3c-7.4,14.3-13.8,21.6-19.1,22c-3.4,0.3-6.3-2.6-8.8-8.7
			c-6.4-16.5-13.4-48.5-20.8-95.8C158.1,164.5,158.9,161.6,160.6,159.3z"/>
		<g>
			<path class="st8" d="M673.8,149.9h-30L599.6,273h29l6.1-18.1l48.3-0.2l6.2,18.4H718L673.8,149.9z M643.9,229l14.9-42.1l15.3,42.1
				H643.9z"/>
			<path class="st9" d="M431.8,179.2c-4.5-7.9-11.2-12.7-20.2-14.6c-2.4-0.5-4.7-0.8-6.8-0.8c-12.1,0-22,6.3-29.7,18.9
				c-6.6,10.7-9.8,22.6-9.8,35.6c0,9.7,2,18,6.1,25c4.5,7.9,11.2,12.7,20.2,14.6c2.4,0.5,4.7,0.8,6.8,0.8c12.2,0,22.1-6.3,29.7-18.9
				c6.6-10.9,9.8-22.7,9.8-35.7C438,194.2,435.9,186,431.8,179.2z M415.9,214.1c-1.8,8.3-4.9,14.5-9.6,18.7c-3.7,3.3-7.1,4.7-10.2,4
				c-3-0.6-5.6-3.3-7.4-8.2c-1.5-3.9-2.3-7.8-2.3-11.5c0-3.2,0.3-6.3,0.9-9.2c1.1-5.2,3.3-10.2,6.7-15c4.2-6.2,8.6-8.7,13.1-7.8
				c3,0.6,5.6,3.3,7.4,8.2c1.5,3.9,2.3,7.8,2.3,11.5C416.8,208.1,416.6,211.2,415.9,214.1z"/>
		</g>
		<path class="st9" d="M332.6,164.5c-2.4-0.5-4.7-0.8-6.8-0.8c-12.1,0-22,6.3-29.7,18.9c-6.6,10.7-9.8,22.6-9.8,35.6
			c0,9.7,2,18,6.1,25c4.5,7.9,11.2,12.7,20.2,14.6c2.4,0.5,4.7,0.8,6.8,0.8c12.2,0,22.1-6.3,29.7-18.9c6.6-10.9,9.8-22.7,9.8-35.7
			c0-9.8-2-18-6.1-24.9C348.3,171.2,341.5,166.4,332.6,164.5z M336.8,214.1c-1.8,8.3-4.9,14.5-9.6,18.7c-3.7,3.3-7.1,4.7-10.2,4
			c-3-0.6-5.6-3.3-7.4-8.2c-1.5-3.9-2.3-7.8-2.3-11.5c0-3.2,0.3-6.3,0.9-9.2c1.1-5.2,3.3-10.2,6.7-15c4.2-6.2,8.6-8.7,13.1-7.8
			c3,0.6,5.6,3.3,7.4,8.2c1.5,3.9,2.3,7.8,2.3,11.5C337.8,208.1,337.4,211.2,336.8,214.1z"/>
		<g>
			<path class="st9" d="M587.2,197c-1.6-1.6-3.6-2.4-5.9-2.4h-36.1v-36.1c0-2.3-0.8-4.3-2.4-5.9c-1.6-1.6-3.6-2.4-5.9-2.4h-16.7
				c-2.3,0-4.3,0.8-5.9,2.4c-1.6,1.6-2.4,3.6-2.4,5.9v36.1h-36.1c-2.3,0-4.3,0.8-5.9,2.4c-1.6,1.6-2.4,3.6-2.4,5.9v16.7
				c0,2.3,0.8,4.3,2.4,5.9c1.6,1.6,3.6,2.4,5.9,2.4h36.1v36.1c0,2.3,0.8,4.3,2.4,5.9c1.6,1.6,3.6,2.4,5.9,2.4h16.7
				c2.3,0,4.3-0.8,5.9-2.4c1.6-1.6,2.4-3.6,2.4-5.9v-36.1h36.1c2.3,0,4.3-0.8,5.9-2.4c1.6-1.6,2.4-3.6,2.4-5.9v-16.7
				C589.6,200.6,588.8,198.6,587.2,197z"/>
		</g>
	</g>
</g>
</svg>
